<mxfile host="Electron" agent="Mozilla/5.0 (X11; Linux x86_64) AppleWebKit/537.36 (KHTML, like Gecko) draw.io/25.0.1 Chrome/128.0.6613.186 Electron/32.2.6 Safari/537.36" version="25.0.1">
  <diagram name="Page-1" id="hcYCtN8_S_0xtcqqv5wd">
    <mxGraphModel dx="1839" dy="579" grid="1" gridSize="10" guides="1" tooltips="1" connect="1" arrows="1" fold="1" page="1" pageScale="1" pageWidth="850" pageHeight="1100" math="0" shadow="0">
      <root>
        <mxCell id="0" />
        <mxCell id="1" parent="0" />
        <mxCell id="fTIwRrZ7sQjGESP2cGGb-5" value="London (eu-west-2&amp;nbsp;)" style="sketch=0;outlineConnect=0;gradientColor=none;html=1;whiteSpace=wrap;fontSize=12;fontStyle=0;shape=mxgraph.aws4.group;grIcon=mxgraph.aws4.group_region;strokeColor=#879196;fillColor=none;verticalAlign=top;align=left;spacingLeft=30;fontColor=#879196;dashed=1;" parent="1" vertex="1">
          <mxGeometry x="270" y="320" width="310" height="250" as="geometry" />
        </mxCell>
        <mxCell id="fTIwRrZ7sQjGESP2cGGb-4" value="" style="rounded=1;arcSize=10;dashed=1;fillColor=none;gradientColor=none;dashPattern=1 1;strokeWidth=2;" parent="1" vertex="1">
          <mxGeometry x="100" y="130" width="539.5" height="480" as="geometry" />
        </mxCell>
        <mxCell id="fTIwRrZ7sQjGESP2cGGb-1" value="" style="outlineConnect=0;dashed=0;verticalLabelPosition=bottom;verticalAlign=top;align=center;html=1;shape=mxgraph.aws3.cognito;fillColor=#AD688B;gradientColor=none;" parent="1" vertex="1">
          <mxGeometry x="330" y="390" width="40" height="48.63" as="geometry" />
        </mxCell>
        <mxCell id="fTIwRrZ7sQjGESP2cGGb-2" value="" style="outlineConnect=0;dashed=0;verticalLabelPosition=bottom;verticalAlign=top;align=center;html=1;shape=mxgraph.aws3.cloudfront;fillColor=#F58536;gradientColor=none;" parent="1" vertex="1">
          <mxGeometry x="150" y="470" width="50" height="60.79" as="geometry" />
        </mxCell>
        <mxCell id="fTIwRrZ7sQjGESP2cGGb-3" value="" style="outlineConnect=0;dashed=0;verticalLabelPosition=bottom;verticalAlign=top;align=center;html=1;shape=mxgraph.aws3.s3;fillColor=#E05243;gradientColor=none;" parent="1" vertex="1">
          <mxGeometry x="333.5" y="470" width="36.5" height="48.63" as="geometry" />
        </mxCell>
        <mxCell id="fTIwRrZ7sQjGESP2cGGb-6" value="AWS" style="text;html=1;align=center;verticalAlign=middle;whiteSpace=wrap;rounded=0;fontSize=23;" parent="1" vertex="1">
          <mxGeometry x="150" y="160" width="60" height="30" as="geometry" />
        </mxCell>
        <mxCell id="fTIwRrZ7sQjGESP2cGGb-7" value="Cognito" style="text;html=1;align=center;verticalAlign=middle;whiteSpace=wrap;rounded=0;" parent="1" vertex="1">
          <mxGeometry x="370" y="399.32" width="60" height="30" as="geometry" />
        </mxCell>
        <mxCell id="fTIwRrZ7sQjGESP2cGGb-8" value="S3 Bucket" style="text;html=1;align=center;verticalAlign=middle;whiteSpace=wrap;rounded=0;" parent="1" vertex="1">
          <mxGeometry x="380" y="479.32" width="60" height="30" as="geometry" />
        </mxCell>
        <mxCell id="fTIwRrZ7sQjGESP2cGGb-9" value="Users" style="sketch=0;outlineConnect=0;fontColor=#232F3E;gradientColor=none;strokeColor=#232F3E;fillColor=#ffffff;dashed=0;verticalLabelPosition=bottom;verticalAlign=top;align=center;html=1;fontSize=12;fontStyle=0;aspect=fixed;shape=mxgraph.aws4.resourceIcon;resIcon=mxgraph.aws4.users;" parent="1" vertex="1">
          <mxGeometry x="-50" y="369.32" width="60" height="60" as="geometry" />
        </mxCell>
        <mxCell id="fTIwRrZ7sQjGESP2cGGb-17" value="" style="endArrow=classic;html=1;rounded=0;entryX=0;entryY=0.5;entryDx=0;entryDy=0;entryPerimeter=0;" parent="1" source="fTIwRrZ7sQjGESP2cGGb-9" target="fTIwRrZ7sQjGESP2cGGb-2" edge="1">
          <mxGeometry width="50" height="50" relative="1" as="geometry">
            <mxPoint x="390" y="460" as="sourcePoint" />
            <mxPoint x="440" y="410" as="targetPoint" />
            <Array as="points">
              <mxPoint x="40" y="399" />
              <mxPoint x="40" y="500" />
            </Array>
          </mxGeometry>
        </mxCell>
        <mxCell id="fTIwRrZ7sQjGESP2cGGb-21" value="" style="endArrow=classic;html=1;rounded=0;entryX=0;entryY=0.5;entryDx=0;entryDy=0;entryPerimeter=0;exitX=1.002;exitY=0.899;exitDx=0;exitDy=0;exitPerimeter=0;" parent="1" source="fTIwRrZ7sQjGESP2cGGb-9" target="fTIwRrZ7sQjGESP2cGGb-1" edge="1">
          <mxGeometry width="50" height="50" relative="1" as="geometry">
            <mxPoint x="30" y="420" as="sourcePoint" />
            <mxPoint x="310" y="399.32" as="targetPoint" />
          </mxGeometry>
        </mxCell>
        <mxCell id="fTIwRrZ7sQjGESP2cGGb-23" value="Gets ReactJS APP" style="text;html=1;align=center;verticalAlign=middle;whiteSpace=wrap;rounded=0;fontSize=8;" parent="1" vertex="1">
          <mxGeometry x="40" y="500.00000000000006" width="60" height="30" as="geometry" />
        </mxCell>
        <mxCell id="fTIwRrZ7sQjGESP2cGGb-24" value="Authenticates with congito" style="text;html=1;align=center;verticalAlign=middle;whiteSpace=wrap;rounded=0;fontSize=8;" parent="1" vertex="1">
          <mxGeometry x="120" y="420.00000000000006" width="60" height="30" as="geometry" />
        </mxCell>
        <mxCell id="t1CLawWlc60ABvISlltT-2" value="" style="endArrow=classic;html=1;rounded=0;entryX=0;entryY=0.5;entryDx=0;entryDy=0;entryPerimeter=0;" edge="1" parent="1" source="fTIwRrZ7sQjGESP2cGGb-2" target="fTIwRrZ7sQjGESP2cGGb-3">
          <mxGeometry width="50" height="50" relative="1" as="geometry">
            <mxPoint x="320" y="510" as="sourcePoint" />
            <mxPoint x="370" y="460" as="targetPoint" />
          </mxGeometry>
        </mxCell>
        <mxCell id="t1CLawWlc60ABvISlltT-3" value="" style="outlineConnect=0;dashed=0;verticalLabelPosition=bottom;verticalAlign=top;align=center;html=1;shape=mxgraph.aws3.lambda_function;fillColor=#F58534;gradientColor=none;" vertex="1" parent="1">
          <mxGeometry x="430" y="350" width="30" height="31.31" as="geometry" />
        </mxCell>
        <mxCell id="t1CLawWlc60ABvISlltT-4" value="Lambda" style="text;html=1;align=center;verticalAlign=middle;whiteSpace=wrap;rounded=0;" vertex="1" parent="1">
          <mxGeometry x="460" y="351.31" width="60" height="30" as="geometry" />
        </mxCell>
        <mxCell id="t1CLawWlc60ABvISlltT-5" value="" style="endArrow=classic;html=1;rounded=0;exitX=0.5;exitY=0;exitDx=0;exitDy=0;exitPerimeter=0;entryX=0;entryY=0.5;entryDx=0;entryDy=0;entryPerimeter=0;" edge="1" parent="1" source="fTIwRrZ7sQjGESP2cGGb-1" target="t1CLawWlc60ABvISlltT-3">
          <mxGeometry width="50" height="50" relative="1" as="geometry">
            <mxPoint x="390" y="440" as="sourcePoint" />
            <mxPoint x="440" y="390" as="targetPoint" />
            <Array as="points">
              <mxPoint x="350" y="366" />
            </Array>
          </mxGeometry>
        </mxCell>
        <mxCell id="t1CLawWlc60ABvISlltT-6" value="Pre-Sign Hook" style="text;html=1;align=center;verticalAlign=middle;whiteSpace=wrap;rounded=0;fontSize=8;" vertex="1" parent="1">
          <mxGeometry x="360" y="339.32" width="60" height="30" as="geometry" />
        </mxCell>
        <mxCell id="t1CLawWlc60ABvISlltT-7" value="(Verifies duplicate emails)" style="text;html=1;align=center;verticalAlign=middle;whiteSpace=wrap;rounded=0;fontSize=7;" vertex="1" parent="1">
          <mxGeometry x="361" y="364" width="60" height="30" as="geometry" />
        </mxCell>
      </root>
    </mxGraphModel>
  </diagram>
</mxfile>
